<svg  xmlns="http://www.w3.org/2000/svg" viewBox="0 0 40 40">
	<path fill="#6264A7" d="M1.671168698848006,19.664698320901486 " />
	<path fill="#6264A7" d="M1.3799065769995313,19.47052357300251 " />
	<path fill="#6264A7" d="M1.3799065769995313,19.276348825103533 " />
	<path fill="#6264A7" d="M19.55578423957148,1.1102743525741303 " />
	<path fill="#6264A7" d="M1.6711689470052127,19.238738231567254 " />
	<path fill="#6264A7" d="M0.4999999958708701,19.871006476458795 C0.4999999958708701,19.871006476458795 19.82985376474705,0.5000000063645752 19.82985376474705,0.5000000063645752 C19.82985376474705,0.5000000063645752 39.7775567408476,19.517198139105478 39.68929763508921,19.47297442714575 C39.7775567408476,19.517198139105478 38.718386671320125,21.109335657195416 38.718386671320125,21.109335657195416 C38.718386671320125,21.109335657195416 35.3643481178165,18.63267729572218 35.3643481178165,18.63267729572218 C35.3643481178165,18.63267729572218 35.09955560043463,39.1535608622147 35.09955560043463,39.1535608622147 C35.09955560043463,39.1535608622147 23.095628145790066,39.330465030891354 23.095628145790066,39.330465030891354 C23.095628145790066,39.330465030891354 22.830835628408188,27.743241982570154 22.830835628408188,27.743241982570154 C22.830835628408188,27.743241982570154 17.799777798152743,27.477885729555155 17.799777798152743,27.477885729555155 C17.799777798152743,27.477885729555155 17.799777798152743,39.1535608622147 17.799777798152743,39.1535608622147 C17.799777798152743,39.1535608622147 5.001472791362577,39.41891711522968 5.001472791362577,39.41891711522968 C5.001472791362577,39.41891711522968 4.824944446441331,18.80958146439884 4.824944446441331,18.80958146439884 C4.824944446441331,18.80958146439884 1.5591700653983316,21.640048163225394 1.5591700653983316,21.640048163225394 C1.5591700653983316,21.640048163225394 0.4999999958708701,19.871006476458795 0.4999999958708701,19.871006476458795 z" />
	<path fill="#6264A7" d="M35.18468030999138,12.301801739766354 " />
</svg>
