<svg xmlns="http://www.w3.org/2000/svg" viewBox="0 0 40 40">
	<path fill="#5C5B5B" d="M40.041840398055776,18.949450988104147 l-18.922211515469918,-18.60140055397716 q-0.40692927990257977,-0.348051153816621 -0.935937343775931,-0.348051153816621 t-0.935937343775931,0.348051153816621 l-18.881518587479658,18.562728203553096 q-0.36623635191232207,0.348051153816621 -0.36623635191232207,0.8701278845415522 t0.36623635191232207,0.8701278845415522 q0.36623635191232207,0.3867235042406896 0.9155908797808027,0.3867235042406896 t0.9155908797808027,-0.3867235042406896 l2.3601898234349568,-2.2429963245959983 v18.71741760524937 q0,1.044153461449862 0.7731656318149006,1.7595919442951367 t1.8311817595616051,0.7154384828452763 h26.0027809857748 q1.098709055736963,0 1.8515282235567347,-0.7154384828452763 t0.7528191678197725,-1.7595919442951367 V18.408038082167185 l2.441575679415474,2.320341025444137 q0.40692927990257977,0.348051153816621 0.935937343775931,0.348051153816621 t0.8952444157856739,-0.348051153816621 q0.40692927990257977,-0.3867235042406896 0.40692927990257977,-0.8894640597535867 t-0.40692927990257977,-0.8894640597535867 zm-22.421803322632098,18.176004699312404 V27.2253339788549 h5.1680018547627515 v9.900121708561649 h-5.1680018547627515 zm15.544698492278513,0 h-7.772349246139257 V27.2253339788549 q0,-1.005481111025793 -0.7528191678197725,-1.7402557690831038 t-1.8515282235567347,-0.73477465805731 h-5.1680018547627515 q-1.0580161277467055,0 -1.8311817595616051,0.73477465805731 t-0.7731656318149006,1.7402557690831038 v9.900121708561649 h-7.853735102119774 V15.933007655026767 l13.021736956882526,-12.955237392063095 l12.981044028892267,12.955237392063095 v21.192448032389777 z" id="svg_1" class="" />
</svg>
